<?xml version="1.0" encoding="UTF-8"?>
<svg id="img2" viewBox="0 0 18 18" xmlns="http://www.w3.org/2000/svg" >
  <path id="img2Path" d="m176.068,407.132 .375.551c-.033.134-.117.283-.251.45-.067.05-.101.101-.101.151 0,.016.017.058.05.125-2.153,2.17-3.979,4.206-5.482,6.108 2.02,2.671 3.254,4.2 3.705,4.582-.084.468-.267.827-.551,1.077l-.376.3c-.266.219-.399.335-.399.353v.023l.075.275c-.068.033-.127.092-.176.175-.184.218-.385.369-.601.452-.067,0-.15-.05-.252-.151-.066-.048-.149-.108-.249-.175l-.149-.101c-.018-.016-.034-.025-.051-.025l-.076.051c-.35.435-.667.71-.951.827-.05,0-.117-.025-.2-.076-.534-.549-1.101-1.268-1.702-2.152-.5-.751-.875-1.287-1.127-1.604l-.249.35-1.728,2.255c-.217.284-.834,1.136-1.853,2.553h-.326l-.477-.524 .052-.201 .049-.149c0-.1-.05-.151-.15-.151s-.25.052-.45.151c-.018,0-.067.024-.15.075-.184-.101-.451-.435-.802-1.001-.1-.149-.149-.251-.149-.301 0-.033.042-.109.125-.226 .117-.185.175-.334.175-.45 0-.033-.083-.228-.25-.576l-.124-.375 1.226-1.578 2.729-3.153c.067-.102.134-.185.2-.251-1.084-1.886-1.968-3.755-2.653-5.609-.15-.451-.241-.768-.275-.951 .234-.367.542-.736.927-1.103l.375.301c.066.117.133.175.2.175 .167,0 .275-.124.325-.375 .051-.468.259-.71.627-.726 .117,0 .275.108.475.324 1.053,1.72 2.063,3.247 3.029,4.583 2.172-2.387 3.964-4.231 5.384-5.534 .284-.25.441-.375.476-.375 .083,0 .334.208.752.625l.149.201c0,.033-.025.091-.075.176-.033.033-.049.066-.049.099 0,.05.149.184.448.402l.377-.1 .149.223z"
    fill="#333" transform="translate(-158.86 -405.51)"/></svg>
